<svg width="24" height="24" viewBox="0 0 24 24" fill="none" xmlns="http://www.w3.org/2000/svg">
<path d="M12.0002 0.333374C18.4437 0.333374 23.6668 5.55654 23.6668 12C23.6668 18.4435 18.4437 23.6667 12.0002 23.6667C9.87471 23.67 7.78913 23.0897 5.97084 21.989L2.43351 23.0297C2.23041 23.0895 2.01497 23.0934 1.80983 23.0411C1.60468 22.9888 1.41742 22.8822 1.26773 22.7325C1.11803 22.5828 1.01143 22.3955 0.959125 22.1904C0.906823 21.9852 0.910755 21.7698 0.970506 21.5667L2.01117 18.0294C0.910958 16.2109 0.33068 14.1254 0.333506 12C0.333506 5.55654 5.55667 0.333374 12.0002 0.333374ZM12.0002 2.66671C10.3291 2.6664 8.68854 3.11477 7.24989 3.96499C5.81124 4.81521 4.62725 6.03609 3.82156 7.50014C3.01587 8.96419 2.61803 10.6177 2.66959 12.288C2.72115 13.9583 3.22022 15.5841 4.11467 16.9957C4.37951 17.4122 4.47051 17.9372 4.32117 18.4424L3.80667 20.1935L5.55784 19.679C6.06301 19.5297 6.58801 19.6207 7.00451 19.8855C8.22756 20.66 9.61398 21.1393 11.0542 21.2856C12.4944 21.4319 13.9489 21.2412 15.3027 20.7286C16.6565 20.2159 17.8725 19.3954 18.8545 18.3319C19.8366 17.2683 20.5578 15.9909 20.9612 14.6007C21.3646 13.2104 21.439 11.7453 21.1786 10.3213C20.9183 8.89733 20.3302 7.55341 19.461 6.39581C18.5918 5.23822 17.4652 4.29868 16.1703 3.65147C14.8755 3.00426 13.4478 2.66712 12.0002 2.66671ZM7.91684 10.25C8.38097 10.25 8.82609 10.4344 9.15428 10.7626C9.48246 11.0908 9.66684 11.5359 9.66684 12C9.66684 12.4642 9.48246 12.9093 9.15428 13.2375C8.82609 13.5657 8.38097 13.75 7.91684 13.75C7.45271 13.75 7.00759 13.5657 6.6794 13.2375C6.35121 12.9093 6.16684 12.4642 6.16684 12C6.16684 11.5359 6.35121 11.0908 6.6794 10.7626C7.00759 10.4344 7.45271 10.25 7.91684 10.25ZM16.0835 10.25C16.5476 10.25 16.9928 10.4344 17.3209 10.7626C17.6491 11.0908 17.8335 11.5359 17.8335 12C17.8335 12.4642 17.6491 12.9093 17.3209 13.2375C16.9928 13.5657 16.5476 13.75 16.0835 13.75C15.6194 13.75 15.1743 13.5657 14.8461 13.2375C14.5179 12.9093 14.3335 12.4642 14.3335 12C14.3335 11.5359 14.5179 11.0908 14.8461 10.7626C15.1743 10.4344 15.6194 10.25 16.0835 10.25Z" fill="#1F3E97"/>
</svg>
